<?xml version="1.0" standalone="no"?>
<!DOCTYPE svg PUBLIC "-//W3C//DTD SVG 20010904//EN"
 "http://www.w3.org/TR/2001/REC-SVG-20010904/DTD/svg10.dtd">
<svg version="1.0" xmlns="http://www.w3.org/2000/svg"
 width="1314.000000pt" height="1294.000000pt" viewBox="0 0 1314.000000 1294.000000"
 preserveAspectRatio="xMidYMid meet">

<g transform="translate(0.000000,1294.000000) scale(0.100000,-0.100000)"
fill="#000000" stroke="none">
<path d="M0 6470 l0 -6470 6570 0 6570 0 0 6470 0 6470 -6570 0 -6570 0 0
-6470z m6057 5239 c79 -44 103 -82 103 -161 0 -44 -6 -61 -34 -99 -70 -95
-179 -107 -256 -28 -78 81 -74 176 12 261 42 43 52 48 92 48 27 0 60 -8 83
-21z m1382 1 c51 -25 96 -81 111 -137 18 -61 1 -113 -55 -168 -47 -47 -101
-64 -170 -51 -40 8 -99 55 -121 97 -31 60 -11 147 48 215 57 64 119 79 187 44z
m-5604 -205 c119 -27 173 -55 240 -121 101 -102 137 -193 139 -349 0 -106 -1
-112 -34 -180 -112 -225 -394 -328 -601 -219 -242 127 -333 459 -188 685 100
157 266 226 444 184z m9820 -16 c118 -30 230 -129 291 -255 34 -70 39 -90 42
-169 3 -73 0 -102 -18 -154 -68 -202 -236 -324 -450 -325 -75 0 -93 3 -153 31
-163 77 -287 263 -287 432 0 179 129 365 299 432 53 21 210 26 276 8z m-6550
-63 c48 -17 102 -76 111 -121 14 -78 -49 -181 -126 -204 -46 -13 -111 -1 -144
27 -27 24 -56 91 -56 132 0 41 29 108 56 131 29 25 77 48 99 48 11 1 38 -6 60
-13z m3262 -32 c53 -35 86 -99 73 -145 -22 -75 -89 -139 -153 -146 -86 -10
-161 51 -173 139 -18 131 139 225 253 152z m-4234 -424 c53 -25 111 -85 135
-139 25 -56 22 -195 -6 -248 -58 -112 -127 -153 -257 -153 -102 0 -140 16
-203 84 -53 57 -82 123 -82 184 0 53 27 136 59 180 32 46 98 101 128 108 16 3
33 8 38 10 26 10 146 -7 188 -26z m5228 15 c109 -17 229 -173 229 -297 0 -49
-38 -132 -84 -185 -78 -90 -208 -114 -315 -58 -75 38 -151 169 -151 259 0 127
104 265 215 287 30 6 37 5 106 -6z m-2530 -229 c64 -23 320 -150 489 -242 101
-55 177 -96 365 -193 136 -71 235 -124 380 -201 183 -98 362 -193 490 -260
139 -72 172 -90 375 -200 58 -31 159 -85 225 -120 125 -66 246 -130 353 -187
57 -30 93 -50 257 -138 33 -18 96 -52 140 -75 246 -131 460 -262 526 -322 60
-55 141 -163 175 -233 50 -108 83 -245 94 -404 6 -83 10 -989 10 -2302 0
-2129 0 -2167 -20 -2278 -48 -264 -151 -450 -333 -601 -73 -60 -150 -106 -452
-270 -63 -34 -132 -72 -315 -173 -188 -104 -251 -137 -390 -209 -181 -95 -340
-178 -400 -211 -125 -68 -145 -79 -155 -87 -5 -4 -35 -21 -65 -37 -30 -16
-111 -61 -180 -100 -199 -111 -297 -165 -510 -278 -91 -48 -194 -104 -230
-125 -61 -35 -297 -161 -505 -270 -49 -25 -117 -57 -150 -69 -33 -13 -69 -27
-80 -31 -61 -24 -153 -35 -300 -35 -144 0 -167 2 -225 24 -58 21 -359 170
-385 190 -5 5 -64 37 -130 71 -66 35 -138 73 -160 85 -58 32 -372 203 -425
232 -25 14 -49 28 -55 33 -5 4 -35 21 -65 37 -134 74 -301 168 -365 207 -97
60 -195 116 -290 166 -44 23 -114 62 -155 85 -41 23 -120 66 -175 95 -55 29
-190 104 -300 165 -110 62 -222 124 -250 139 -27 16 -54 32 -60 36 -5 4 -95
52 -200 105 -365 187 -370 190 -498 314 -134 130 -197 239 -254 439 l-36 127
2 2270 c1 1457 5 2299 12 2350 21 168 77 314 164 431 49 64 148 162 205 200
46 31 234 137 415 234 55 29 125 67 155 83 30 17 98 52 150 80 52 27 154 79
225 117 72 37 198 102 280 145 83 43 206 108 275 145 69 37 190 101 270 142
80 42 165 86 190 100 25 14 86 46 135 73 50 26 114 61 143 76 28 16 78 43 110
60 31 17 71 39 87 49 17 10 80 43 140 75 122 64 205 109 250 135 52 30 255
135 420 217 143 72 199 96 300 131 17 5 77 10 135 11 87 1 116 -3 171 -23z
m-4381 -147 c45 -28 497 -475 516 -511 27 -53 9 -105 -50 -146 -40 -27 -75
-28 -125 -2 -40 20 -456 441 -512 518 -29 40 -31 45 -18 69 19 36 98 92 129
93 14 0 41 -10 60 -21z m8439 7 c38 -20 111 -102 111 -125 0 -36 -57 -102
-353 -407 -102 -105 -168 -154 -206 -154 -10 0 -39 7 -65 16 -58 20 -102 78
-92 119 19 75 512 565 569 565 4 0 20 -6 36 -14z m-9073 -2388 c61 -17 117
-66 150 -135 74 -151 -3 -317 -169 -363 -98 -27 -203 24 -263 128 -38 65 -40
167 -5 235 61 119 164 167 287 135z m9877 -31 c146 -86 171 -293 49 -401 -56
-49 -88 -59 -187 -60 -81 -1 -94 2 -127 25 -51 35 -73 65 -93 128 -38 115 5
243 104 305 50 32 65 35 143 32 50 -2 78 -10 111 -29z m205 -1104 c111 -53
133 -174 48 -259 -58 -58 -191 -71 -242 -23 -96 91 -53 249 81 297 34 12 64 8
113 -15z m-10311 -17 c73 -48 90 -115 51 -194 -41 -80 -122 -122 -192 -98 -75
26 -126 96 -126 173 0 36 6 50 38 84 20 23 51 48 67 56 44 20 113 11 162 -21z
m-37 -999 c59 -20 105 -52 142 -98 56 -69 68 -100 68 -178 0 -113 -56 -214
-148 -269 -42 -24 -56 -27 -142 -27 -113 0 -146 13 -218 84 -124 122 -126 257
-6 397 78 91 200 128 304 91z m10413 -20 c101 -46 159 -135 165 -252 3 -58 0
-80 -20 -125 -32 -71 -68 -114 -127 -148 -42 -25 -55 -27 -152 -27 -100 0
-108 2 -155 30 -58 36 -106 104 -129 183 -16 53 -16 62 -1 125 26 110 91 187
195 229 60 24 153 18 224 -15z m-10132 -1353 c73 -50 111 -144 90 -222 -28
-103 -118 -171 -228 -172 -97 0 -168 49 -200 141 -33 97 34 226 142 276 49 22
147 11 196 -23z m9847 20 c82 -34 142 -120 142 -202 0 -64 -19 -108 -67 -153
-52 -49 -95 -64 -183 -64 -67 0 -80 4 -120 30 -64 43 -93 102 -87 180 7 94 53
167 132 208 39 21 135 21 183 1z m-8309 -2478 c16 -14 21 -31 21 -67 l0 -48
-242 -239 c-381 -375 -472 -452 -539 -452 -61 0 -119 50 -119 103 0 59 37 105
264 335 237 240 351 341 421 374 53 25 164 21 194 -6z m6822 -47 c64 -42 230
-203 429 -417 123 -133 169 -196 170 -235 0 -33 -23 -91 -41 -102 -22 -15 -88
-6 -128 17 -60 34 -545 517 -592 590 -21 34 -39 68 -39 76 0 22 96 112 118
112 11 0 48 -19 83 -41z m-6074 -660 c79 -38 127 -123 127 -229 1 -64 -3 -81
-26 -120 -43 -71 -73 -100 -127 -121 -61 -23 -154 -25 -204 -4 -88 37 -157
162 -143 261 15 115 85 202 186 235 38 12 140 0 187 -22z m5355 -7 c45 -28 61
-47 92 -108 36 -72 36 -150 -1 -222 -56 -111 -146 -157 -267 -138 -58 9 -80
21 -120 61 -93 95 -101 236 -20 342 72 95 218 125 316 65z m-7598 -293 c57
-15 82 -28 147 -71 210 -139 274 -446 136 -648 -36 -52 -39 -55 -92 -96 -115
-89 -258 -123 -382 -90 -84 23 -143 57 -213 127 -177 174 -194 422 -43 621 41
53 129 119 183 136 19 6 49 16 65 21 42 13 150 13 199 0z m9782 -8 c115 -35
212 -123 270 -244 68 -145 72 -287 10 -412 -67 -135 -168 -210 -325 -242 -154
-30 -296 10 -397 115 -86 87 -137 213 -137 333 1 208 136 391 337 454 61 19
172 18 242 -4z m-3215 -255 c41 -27 79 -90 79 -128 -1 -34 -34 -99 -66 -130
-89 -83 -222 -53 -270 61 -34 80 -4 158 81 213 41 26 123 19 176 -16z"/>
<path d="M6580 10318 c-55 -25 -178 -86 -230 -115 -30 -17 -86 -47 -125 -68
-38 -21 -74 -41 -80 -45 -5 -4 -50 -29 -100 -55 -139 -74 -255 -135 -310 -165
-27 -15 -81 -45 -120 -65 -93 -51 -197 -118 -213 -137 -11 -14 -8 -22 19 -52
17 -20 36 -36 41 -36 5 0 22 -8 36 -19 15 -10 117 -66 227 -123 244 -129 313
-166 345 -188 14 -9 66 -39 115 -65 50 -26 135 -74 190 -106 55 -31 120 -66
145 -77 125 -56 121 -55 162 -43 43 13 335 157 488 241 252 139 391 217 460
258 41 25 84 51 95 57 150 83 181 110 171 149 -12 49 -69 87 -293 198 -199 97
-375 188 -498 258 -196 111 -291 158 -373 184 -90 28 -114 30 -152 14z"/>
<path d="M4690 9329 c-58 -33 -143 -81 -190 -106 -47 -25 -114 -62 -150 -83
-36 -21 -155 -86 -265 -145 -202 -109 -250 -135 -317 -174 -21 -11 -55 -31
-75 -42 -127 -71 -173 -101 -172 -112 1 -25 43 -52 284 -177 88 -46 186 -98
218 -116 32 -19 60 -34 62 -34 2 0 43 -23 92 -51 126 -73 520 -273 569 -288
40 -13 41 -13 205 67 305 150 880 461 1032 558 83 54 91 69 49 103 -47 40
-200 131 -427 256 -27 16 -100 56 -162 91 -301 170 -594 315 -637 314 -6 0
-58 -28 -116 -61z"/>
<path d="M8377 9351 c-49 -22 -94 -44 -100 -49 -7 -5 -64 -37 -127 -70 -94
-49 -410 -227 -555 -312 -218 -127 -308 -190 -319 -223 -8 -23 -6 -31 18 -56
25 -26 160 -104 389 -225 123 -65 255 -135 302 -161 22 -12 108 -58 190 -102
83 -44 170 -92 195 -106 25 -15 69 -38 97 -53 l53 -26 45 21 c25 11 47 21 50
21 12 0 287 143 485 252 25 14 72 40 105 58 33 18 79 43 103 56 23 13 86 47
140 76 53 28 132 71 176 95 43 24 80 43 83 43 2 0 24 14 49 30 49 35 55 57 22
87 -25 21 -51 36 -485 264 -94 49 -254 136 -393 213 -113 63 -384 196 -410
201 -16 3 -56 -9 -113 -34z"/>
<path d="M6375 8311 c-138 -70 -291 -150 -340 -178 -50 -28 -126 -70 -170 -93
-150 -80 -375 -213 -462 -272 -51 -34 -62 -62 -36 -90 42 -47 186 -132 473
-280 156 -81 265 -139 373 -200 38 -21 70 -38 72 -38 2 0 74 -41 161 -92 206
-119 195 -119 409 -12 168 85 613 316 678 353 20 11 52 29 70 39 17 11 88 49
157 86 137 74 180 113 180 162 0 66 -129 153 -540 366 -58 30 -141 75 -185
100 -105 60 -203 112 -350 186 -147 73 -191 92 -219 92 -11 -1 -134 -58 -271
-129z"/>
<path d="M3138 8263 c-15 -7 -40 -30 -55 -50 l-28 -36 0 -1181 c0 -1284 -3
-1200 54 -1344 51 -128 147 -284 224 -364 110 -113 202 -170 612 -378 160 -81
324 -165 365 -187 41 -22 120 -64 175 -93 196 -104 223 -119 346 -188 156 -87
261 -142 524 -277 116 -59 215 -111 220 -115 6 -4 87 -47 180 -95 149 -77 245
-127 550 -290 234 -125 314 -165 328 -165 15 0 112 40 240 99 37 17 330 161
650 321 532 264 699 351 1082 565 72 40 198 108 280 150 83 43 155 81 160 85
6 4 87 47 180 95 507 262 610 323 727 431 130 120 232 295 267 459 7 33 18 74
23 90 24 74 31 2303 7 2381 -15 47 -80 89 -138 88 -47 0 -148 -45 -282 -125
-75 -44 -103 -60 -314 -179 -102 -58 -246 -136 -540 -295 -33 -17 -109 -58
-170 -90 -60 -32 -114 -61 -120 -65 -5 -4 -62 -34 -125 -67 -174 -91 -299
-158 -470 -251 -85 -46 -193 -105 -240 -130 -47 -25 -112 -61 -145 -79 -33
-18 -125 -68 -205 -110 -80 -42 -206 -111 -280 -153 -168 -96 -427 -230 -501
-260 l-56 -22 -64 22 c-64 22 -176 77 -279 136 -30 17 -80 45 -110 61 -84 46
-134 74 -145 83 -5 4 -50 29 -100 55 -49 27 -124 67 -165 90 -41 23 -106 59
-145 80 -38 21 -74 41 -80 45 -5 4 -50 29 -100 55 -49 27 -139 76 -200 110
-101 56 -210 116 -340 185 -27 15 -156 84 -285 155 -129 70 -264 143 -300 163
-36 19 -101 55 -145 80 -44 25 -107 58 -140 75 -33 16 -105 55 -160 87 -55 31
-131 74 -170 95 -38 21 -110 63 -160 93 -49 30 -144 81 -210 113 -128 63 -173
71 -227 42z m866 -1593 c136 -64 192 -221 120 -336 -41 -67 -96 -104 -166
-111 -93 -9 -156 22 -209 106 -24 37 -29 56 -29 108 0 103 52 186 145 232 51
26 85 26 139 1z m5471 -25 c78 -45 115 -114 115 -214 0 -57 -4 -74 -30 -114
-95 -150 -309 -152 -387 -4 -27 52 -22 161 10 217 73 127 192 174 292 115z
m-3943 -268 c150 -73 292 -256 357 -456 29 -90 29 -224 -1 -308 -43 -123 -133
-209 -246 -233 -135 -28 -289 3 -402 82 -162 112 -296 318 -307 472 -12 156
77 350 195 425 87 55 109 60 223 58 99 -2 109 -4 181 -40z m2530 29 c113 -26
200 -110 244 -232 35 -99 30 -265 -12 -392 -47 -142 -189 -319 -296 -370 -60
-28 -157 -45 -220 -40 -133 12 -237 108 -287 265 -30 95 -33 135 -17 220 36
193 140 363 289 476 60 46 99 64 162 76 70 12 73 12 137 -3z m1084 -771 c36
-15 37 -16 31 -61 -10 -94 -140 -298 -263 -415 -167 -158 -306 -227 -554 -274
-88 -17 -357 -20 -412 -5 -73 21 -99 96 -59 170 25 47 62 58 196 58 236 -1
382 37 551 145 50 31 152 113 177 142 31 35 137 194 137 205 0 5 4 10 8 10 5
0 14 12 21 26 11 26 14 27 71 21 33 -4 76 -14 96 -22z"/>
<path d="M3072 4766 c-8 -62 -12 -288 -12 -656 0 -623 -4 -590 69 -651 33 -29
151 -104 226 -145 65 -35 230 -122 360 -189 197 -102 306 -160 385 -205 36
-20 103 -57 150 -81 47 -24 128 -69 181 -100 120 -71 135 -76 149 -50 7 14 11
225 13 675 2 756 17 664 -123 750 -79 49 -125 75 -282 160 -35 18 -90 48 -123
66 -33 18 -107 58 -165 90 -214 116 -268 147 -560 320 -115 68 -175 96 -222
105 l-35 7 -11 -96z"/>
<path d="M10179 4836 c-59 -23 -366 -178 -489 -248 -63 -36 -178 -99 -255
-140 -77 -42 -158 -86 -180 -98 -22 -13 -89 -49 -150 -80 -142 -73 -204 -109
-290 -168 l-70 -47 -6 -105 c-4 -58 -7 -371 -8 -696 -1 -490 1 -593 13 -597
12 -5 126 48 221 103 22 12 60 34 85 48 25 14 86 48 135 77 50 29 164 92 255
140 91 48 208 111 260 140 52 29 145 78 205 110 277 146 316 172 333 220 7 19
12 264 14 690 2 651 2 660 -17 662 -11 1 -36 -4 -56 -11z"/>
<path d="M5104 3763 c-5 -10 -10 -323 -12 -695 l-3 -677 88 -59 c48 -32 135
-85 193 -117 58 -32 121 -67 140 -78 93 -52 187 -104 295 -162 39 -21 93 -50
120 -65 28 -15 98 -53 157 -84 59 -31 125 -66 145 -78 57 -32 132 -68 143 -68
5 0 17 16 25 36 13 31 15 130 15 695 l0 658 -57 39 c-32 21 -121 72 -198 114
-77 42 -158 86 -180 98 -22 13 -65 36 -95 53 -30 16 -59 33 -65 37 -5 4 -66
38 -135 75 -173 94 -264 144 -335 185 -91 52 -206 110 -219 110 -8 0 -18 -8
-22 -17z"/>
<path d="M8190 3773 c-32 -13 -278 -135 -320 -160 -51 -29 -76 -44 -240 -133
-177 -97 -188 -103 -295 -160 -55 -29 -170 -93 -256 -142 -151 -86 -157 -90
-163 -126 -9 -49 -20 -1325 -12 -1357 10 -38 46 -32 155 26 53 28 101 55 106
59 6 4 60 33 120 65 139 73 217 116 470 260 184 104 434 261 458 286 l27 29 1
648 c1 356 2 661 2 677 1 31 -19 41 -53 28z"/>
</g>
</svg>
